<?xml version="1.0" encoding="UTF-8"?><svg id="Layer_2" xmlns="http://www.w3.org/2000/svg" width="1803.61" height="225.29" viewBox="0 0 1803.61 225.29"><defs><style>.cls-1{fill:#f8e48f;}</style></defs><g id="Layer_1-2"><g><path class="cls-1" d="M2.05,171.09L26.76,28.91l44.34,.1c16.47,.07,28.84,3.42,37.11,10.06,8.27,6.64,12.01,15.98,11.23,28.03-.91,14.39-9.21,24.9-24.9,31.54,5.66,1.95,10.06,5.62,13.18,10.99s4.46,11.7,4,18.99c-.91,13.41-6.17,23.84-15.77,31.3-9.6,7.46-22.71,11.18-39.31,11.18H2.05Zm39.45-61.91l-6.74,38.38,22.56,.1c7.03,0,12.92-1.74,17.68-5.22,4.75-3.48,7.58-8.19,8.5-14.11,.91-5.86,.11-10.43-2.39-13.72-2.51-3.29-6.72-5.06-12.65-5.32l-26.95-.1Zm3.52-20.7l19.43,.2c7.23-.13,13.13-1.82,17.72-5.08,4.59-3.25,7.34-7.78,8.25-13.57,1.63-11.46-4.39-17.22-18.07-17.29l-21.09-.1-6.25,35.84Z"/><path class="cls-1" d="M159.57,147.56h60.35l-4.1,23.54H126.86L151.56,28.91h28.61l-20.61,118.65Z"/><path class="cls-1" d="M283.79,173.05c-9.44-.2-17.76-2.42-24.95-6.69-7.19-4.26-12.89-10.42-17.09-18.46-4.2-8.04-6.63-17.27-7.28-27.69-.72-10.68,.42-22.07,3.42-34.18,2.99-12.11,7.81-22.75,14.45-31.93s14.44-16.05,23.39-20.61c8.95-4.56,18.64-6.74,29.05-6.54,9.57,.2,17.94,2.46,25.1,6.79,7.16,4.33,12.79,10.55,16.89,18.65s6.45,17.3,7.03,27.59c.65,11.46-.59,23.24-3.71,35.35s-7.97,22.59-14.55,31.45c-6.58,8.85-14.27,15.5-23.1,19.92-8.82,4.43-18.38,6.54-28.66,6.35Zm40.53-76.95l.78-9.28c.65-11.59-.89-20.38-4.64-26.37-3.74-5.99-9.42-9.11-17.04-9.38-11.91-.39-21.37,4.88-28.37,15.82-7,10.94-10.95,26.24-11.87,45.9-.65,11.52,.88,20.4,4.59,26.61,3.71,6.22,9.47,9.46,17.29,9.72,10.22,.46,18.68-3.53,25.39-11.96,6.7-8.43,11.1-20.36,13.18-35.79l.68-5.27Z"/><path class="cls-1" d="M423.05,28.91l17.48,102.83,53.03-102.83h38.09l-24.71,142.19h-28.71l7.03-40.53,13.87-63.28-54.49,103.81h-19.63l-19.04-107.42-9.18,70.02-6.54,37.4h-28.61l24.71-142.19h36.72Z"/><path class="cls-1" d="M610.74,133.11c1.37-7.75-2.44-13.67-11.43-17.77l-18.85-7.52c-21.88-9.77-32.26-23.21-31.15-40.33,.46-7.94,3.06-14.97,7.81-21.09,4.75-6.12,11.43-10.92,20.02-14.4,8.59-3.48,17.87-5.16,27.83-5.03,13.74,.26,24.84,4.35,33.3,12.26,8.46,7.91,12.63,18.51,12.5,31.79h-28.52c.33-6.45-1.09-11.46-4.25-15.04-3.16-3.58-8.06-5.44-14.7-5.57-6.51-.13-12.17,1.35-16.99,4.44-4.82,3.09-7.68,7.34-8.59,12.74-1.24,7.1,3.52,12.73,14.26,16.89l12.89,4.88,7.42,3.42c19.21,9.51,28.19,22.85,26.95,40.04-.59,8.4-3.27,15.64-8.06,21.73-4.79,6.09-11.3,10.76-19.53,14.01-8.24,3.25-17.3,4.79-27.2,4.59-10.09-.2-19.08-2.31-26.95-6.35-7.88-4.04-13.87-9.73-17.97-17.09-3.84-6.84-5.63-14.65-5.37-23.44l28.61,.1c-.91,15.43,6.67,23.28,22.75,23.54,6.97,0,12.7-1.53,17.19-4.59,4.49-3.06,7.16-7.13,8.01-12.21Z"/><path class="cls-1" d="M777.25,52.64h-42.19l-20.51,118.46h-28.61l20.51-118.46h-41.7l4.2-23.73h112.5l-4.2,23.73Z"/><path class="cls-1" d="M867.58,109.47h-54.49l-6.64,38.09h64.06l-4.1,23.54h-92.68l24.71-142.19h92.48l-4.2,23.73h-63.77l-5.96,33.89h54.69l-4.1,22.95Z"/><path class="cls-1" d="M944.73,119.04h-23.24l-9.08,52.05h-28.61l24.71-142.19,47.07,.1c15.75,0,27.88,3.71,36.38,11.13s12.26,17.74,11.28,30.96c-1.37,19.53-11.78,33.11-31.25,40.72l20.02,57.71v1.56h-30.47l-16.8-52.05Zm-19.14-23.73l21.29,.2c7.55-.13,13.79-2.16,18.7-6.1,4.92-3.94,7.86-9.29,8.84-16.06,.91-6.31-.1-11.26-3.03-14.84-2.93-3.58-7.58-5.5-13.96-5.76l-24.41-.1-7.42,42.68Z"/><path class="cls-1" d="M1057.91,171.09l24.71-142.19,44.34,.1c16.47,.07,28.84,3.42,37.11,10.06,8.27,6.64,12.01,15.98,11.23,28.03-.91,14.39-9.21,24.9-24.9,31.54,5.66,1.95,10.06,5.62,13.18,10.99s4.46,11.7,4,18.99c-.91,13.41-6.17,23.84-15.77,31.3-9.6,7.46-22.71,11.18-39.31,11.18h-54.59Zm39.45-61.91l-6.74,38.38,22.56,.1c7.03,0,12.92-1.74,17.68-5.22,4.75-3.48,7.58-8.19,8.5-14.11,.91-5.86,.11-10.43-2.39-13.72-2.51-3.29-6.72-5.06-12.65-5.32l-26.95-.1Zm3.52-20.7l19.43,.2c7.23-.13,13.13-1.82,17.72-5.08,4.59-3.25,7.34-7.78,8.25-13.57,1.63-11.46-4.39-17.22-18.07-17.29l-21.09-.1-6.25,35.84Z"/><path class="cls-1" d="M1263.28,28.91h28.61l-16.7,98.44c-1.17,8.98-4.17,17.03-8.98,24.12-4.82,7.1-11,12.53-18.55,16.31-7.55,3.77-15.85,5.57-24.9,5.37-13.41-.26-23.76-4.23-31.05-11.91-7.29-7.68-10.74-18.42-10.35-32.23l28.81,.1c-.98,13.41,3.74,20.21,14.16,20.41,5.66,.2,10.48-1.69,14.45-5.66,3.97-3.97,6.54-9.47,7.71-16.5l16.8-98.44Z"/><path class="cls-1" d="M1375.68,141.8h-49.61l-14.65,29.3h-31.54l75.98-142.19h26.46l27.05,142.19h-29.2l-4.49-29.3Zm-37.89-23.73h34.28l-8.01-52.93-26.27,52.93Z"/><path class="cls-1" d="M1484.57,119.04h-23.24l-9.08,52.05h-28.61l24.71-142.19,47.07,.1c15.75,0,27.88,3.71,36.38,11.13s12.26,17.74,11.28,30.96c-1.37,19.53-11.78,33.11-31.25,40.72l20.02,57.71v1.56h-30.47l-16.8-52.05Zm-19.14-23.73l21.29,.2c7.55-.13,13.79-2.16,18.7-6.1,4.92-3.94,7.86-9.29,8.84-16.06,.91-6.31-.1-11.26-3.03-14.84-2.93-3.58-7.58-5.5-13.96-5.76l-24.41-.1-7.42,42.68Z"/><path class="cls-1" d="M1660.84,171.09h-27.73l-39.55-94.82-16.5,94.82h-28.61l24.71-142.19h27.64l39.65,95.02,16.5-95.02h28.52l-24.61,142.19Z"/><path class="cls-1" d="M1780.27,109.47h-54.49l-6.64,38.09h64.06l-4.1,23.54h-92.68l24.71-142.19h92.48l-4.2,23.73h-63.77l-5.96,33.89h54.69l-4.1,22.95Z"/></g></g></svg>