<?xml version="1.0" encoding="UTF-8"?><svg id="Layer_2" xmlns="http://www.w3.org/2000/svg" width="32" height="32" viewBox="0 0 32 32"><g id="Layer_1-2"><g><path d="M.02,24.3L3.15,4.11h5.74c2.26,.02,3.95,.5,5.07,1.46,1.12,.95,1.62,2.29,1.52,4.01-.12,2.13-1.17,3.63-3.12,4.52,.7,.28,1.25,.78,1.64,1.5,.39,.73,.56,1.6,.5,2.61-.12,1.95-.8,3.45-2.06,4.51-1.26,1.05-2.98,1.58-5.17,1.58H.02ZM5.6,15.72l-.76,4.83h2.54c.79,.01,1.45-.21,1.98-.64,.53-.44,.84-1.02,.94-1.75,.23-1.54-.3-2.35-1.59-2.42h-3.12Zm.48-3.2h2c1.84-.03,2.88-.83,3.1-2.36,.2-1.52-.5-2.29-2.11-2.3h-2.26s-.73,4.66-.73,4.66Z"/><path d="M16.02,24.3l3.12-20.2h5.74c2.26,.02,3.95,.5,5.07,1.46,1.12,.95,1.62,2.29,1.52,4.01-.12,2.13-1.17,3.63-3.12,4.52,.7,.28,1.25,.78,1.64,1.5,.39,.73,.56,1.6,.5,2.61-.12,1.95-.8,3.45-2.06,4.51-1.26,1.05-2.98,1.58-5.17,1.58h-7.24Zm5.58-8.59l-.76,4.83h2.54c.79,.01,1.45-.21,1.98-.64,.53-.44,.84-1.02,.94-1.75,.23-1.54-.3-2.35-1.59-2.42h-3.12Zm.48-3.2h2c1.84-.03,2.88-.83,3.1-2.36,.2-1.52-.5-2.29-2.11-2.3h-2.26s-.73,4.66-.73,4.66Z"/></g></g></svg>