<?xml version="1.0" encoding="UTF-8"?><svg id="Layer_2" xmlns="http://www.w3.org/2000/svg" width="2293.58" height="281.62" viewBox="0 0 2293.58 281.62"><defs><style>.cls-1{fill:#f8e48f;}</style></defs><g id="Layer_1-2"><g><path class="cls-1" d="M15.87,213.87V36.13h62.26c21.56,0,37.92,4.13,49.07,12.39,11.15,8.26,16.72,20.37,16.72,36.32,0,8.71-2.24,16.38-6.71,23.01-4.48,6.63-10.7,11.5-18.68,14.59,9.11,2.28,16.3,6.88,21.55,13.79,5.25,6.92,7.87,15.38,7.87,25.39,0,17.09-5.45,30.03-16.36,38.82-10.91,8.79-26.45,13.27-46.63,13.43H15.87ZM52.49,110.6h27.1c18.47-.32,27.71-7.69,27.71-22.1,0-8.06-2.34-13.85-7.02-17.39-4.68-3.54-12.07-5.31-22.16-5.31h-25.63v44.8Zm0,25.88v47.97h31.37c8.62,0,15.36-2.05,20.2-6.16,4.84-4.11,7.26-9.79,7.26-17.03,0-16.28-8.42-24.54-25.27-24.78H52.49Z"/><path class="cls-1" d="M212.04,184.45h77.76v29.42h-114.38V36.13h36.62V184.45Z"/><path class="cls-1" d="M448.97,129.03c0,17.5-3.09,32.84-9.28,46.02-6.19,13.18-15.04,23.36-26.55,30.52-11.52,7.16-24.72,10.74-39.61,10.74s-27.87-3.54-39.43-10.62c-11.56-7.08-20.51-17.19-26.86-30.33-6.35-13.14-9.56-28.26-9.64-45.35v-8.79c0-17.5,3.15-32.9,9.46-46.2,6.31-13.31,15.22-23.52,26.73-30.64,11.52-7.12,24.68-10.68,39.49-10.68s27.97,3.56,39.49,10.68c11.51,7.12,20.43,17.33,26.73,30.64s9.46,28.67,9.46,46.08v7.93Zm-37.11-8.06c0-18.63-3.34-32.79-10.01-42.48-6.67-9.68-16.2-14.53-28.56-14.53s-21.77,4.78-28.44,14.34c-6.67,9.56-10.05,23.58-10.13,42.05v8.67c0,18.15,3.34,32.23,10.01,42.24,6.67,10.01,16.28,15.02,28.81,15.02s21.73-4.82,28.32-14.47,9.93-23.7,10.01-42.17v-8.67Z"/><path class="cls-1" d="M523.44,36.13l45.65,128.91,45.41-128.91h48.1V213.87h-36.74v-48.58l3.66-83.86-47.97,132.45h-25.15l-47.85-132.32,3.66,83.74v48.58h-36.62V36.13h47.85Z"/><path class="cls-1" d="M786.74,167.24c0-6.92-2.44-12.23-7.32-15.93-4.88-3.7-13.67-7.61-26.37-11.72-12.7-4.11-22.75-8.16-30.15-12.15-20.18-10.9-30.27-25.59-30.27-44.07,0-9.6,2.71-18.17,8.12-25.7,5.41-7.53,13.18-13.41,23.32-17.64,10.13-4.23,21.5-6.35,34.12-6.35s24.01,2.3,33.94,6.9c9.93,4.6,17.64,11.09,23.13,19.47,5.49,8.38,8.24,17.9,8.24,28.56h-36.62c0-8.14-2.56-14.47-7.69-18.98s-12.33-6.78-21.61-6.78-15.91,1.89-20.87,5.68c-4.96,3.78-7.45,8.77-7.45,14.95,0,5.78,2.91,10.62,8.73,14.53,5.82,3.91,14.38,7.57,25.7,10.99,20.83,6.27,36.01,14.04,45.53,23.32s14.28,20.83,14.28,34.67c0,15.38-5.82,27.45-17.46,36.19-11.64,8.75-27.3,13.12-47,13.12-13.67,0-26.12-2.5-37.35-7.51s-19.8-11.86-25.7-20.57c-5.9-8.71-8.85-18.8-8.85-30.27h36.74c0,19.61,11.72,29.42,35.16,29.42,8.71,0,15.5-1.77,20.39-5.31s7.32-8.48,7.32-14.83Z"/><path class="cls-1" d="M982.06,65.79h-54.44V213.87h-36.62V65.79h-53.71v-29.66h144.78v29.66Z"/><path class="cls-1" d="M1109.86,136.84h-70.31v47.61h82.52v29.42h-119.14V36.13h118.9v29.66h-82.28v42.36h70.31v28.69Z"/><path class="cls-1" d="M1209.35,148.8h-29.17v65.06h-36.62V36.13h66.04c21,0,37.19,4.68,48.58,14.04,11.39,9.36,17.09,22.58,17.09,39.67,0,12.13-2.62,22.24-7.87,30.33-5.25,8.1-13.2,14.55-23.86,19.35l38.45,72.63v1.71h-39.31l-33.33-65.06Zm-29.17-29.66h29.54c9.2,0,16.32-2.34,21.36-7.02,5.04-4.68,7.57-11.13,7.57-19.35s-2.38-14.97-7.14-19.78c-4.76-4.8-12.07-7.2-21.91-7.2h-29.42v53.35Z"/><path class="cls-1" d="M1365.36,213.87V36.13h62.26c21.56,0,37.92,4.13,49.07,12.39,11.15,8.26,16.72,20.37,16.72,36.32,0,8.71-2.24,16.38-6.71,23.01-4.48,6.63-10.7,11.5-18.68,14.59,9.11,2.28,16.3,6.88,21.55,13.79,5.25,6.92,7.87,15.38,7.87,25.39,0,17.09-5.45,30.03-16.36,38.82-10.91,8.79-26.45,13.27-46.63,13.43h-69.09Zm36.62-103.27h27.1c18.47-.32,27.71-7.69,27.71-22.1,0-8.06-2.34-13.85-7.02-17.39-4.68-3.54-12.07-5.31-22.16-5.31h-25.63v44.8Zm0,25.88v47.97h31.37c8.62,0,15.36-2.05,20.2-6.16,4.84-4.11,7.26-9.79,7.26-17.03,0-16.28-8.42-24.54-25.27-24.78h-33.57Z"/><path class="cls-1" d="M1596.56,36.13h36.62v123.05c0,11.31-2.5,21.3-7.51,29.97-5.01,8.67-12.07,15.36-21.18,20.08-9.12,4.72-19.41,7.08-30.88,7.08-18.8,0-33.45-4.78-43.95-14.34-10.5-9.56-15.75-23.09-15.75-40.59h36.87c0,8.71,1.83,15.14,5.49,19.29s9.44,6.22,17.33,6.22c7,0,12.57-2.4,16.72-7.2,4.15-4.8,6.23-11.64,6.23-20.51V36.13Z"/><path class="cls-1" d="M1764.89,177.25h-64.21l-12.21,36.62h-38.94l66.16-177.73h33.94l66.53,177.73h-38.94l-12.33-36.62Zm-54.32-29.66h44.43l-22.34-66.53-22.09,66.53Z"/><path class="cls-1" d="M1898.56,148.8h-29.17v65.06h-36.62V36.13h66.04c21,0,37.19,4.68,48.58,14.04,11.39,9.36,17.09,22.58,17.09,39.67,0,12.13-2.62,22.24-7.87,30.33-5.25,8.1-13.2,14.55-23.86,19.35l38.45,72.63v1.71h-39.31l-33.33-65.06Zm-29.17-29.66h29.54c9.2,0,16.32-2.34,21.36-7.02,5.04-4.68,7.57-11.13,7.57-19.35s-2.38-14.97-7.14-19.78c-4.76-4.8-12.07-7.2-21.91-7.2h-29.42v53.35Z"/><path class="cls-1" d="M2136.84,213.87h-36.62l-71.29-116.94v116.94h-36.62V36.13h36.62l71.41,117.19V36.13h36.5V213.87Z"/><path class="cls-1" d="M2275.76,136.84h-70.31v47.61h82.52v29.42h-119.14V36.13h118.9v29.66h-82.28v42.36h70.31v28.69Z"/></g></g></svg>