<?xml version="1.0" encoding="UTF-8"?><svg id="Layer_2" xmlns="http://www.w3.org/2000/svg" width="4587.16" height="563.23" viewBox="0 0 4587.16 563.23"><defs><style>.cls-1{fill:#f8e48f;}</style></defs><g id="Layer_1-2"><g><path class="cls-1" d="M31.74,427.73V72.27h124.51c43.13,0,75.84,8.26,98.14,24.78,22.3,16.52,33.45,40.73,33.45,72.63,0,17.42-4.48,32.76-13.43,46.02-8.95,13.27-21.4,22.99-37.35,29.18,18.23,4.56,32.59,13.76,43.09,27.59,10.5,13.84,15.75,30.76,15.75,50.78,0,34.18-10.91,60.06-32.71,77.64-21.81,17.58-52.9,26.53-93.26,26.86H31.74ZM104.98,221.19h54.2c36.95-.65,55.42-15.38,55.42-44.19,0-16.11-4.68-27.71-14.04-34.79-9.36-7.08-24.13-10.62-44.31-10.62h-51.27v89.6Zm0,51.76v95.95h62.74c17.25,0,30.72-4.11,40.41-12.33,9.68-8.22,14.53-19.57,14.53-34.06,0-32.55-16.85-49.07-50.54-49.56H104.98Z"/><path class="cls-1" d="M424.07,368.9h155.52v58.84h-228.76V72.27h73.24V368.9Z"/><path class="cls-1" d="M897.95,258.06c0,35-6.19,65.67-18.55,92.04-12.37,26.37-30.07,46.71-53.1,61.04-23.03,14.32-49.44,21.48-79.22,21.48s-55.75-7.08-78.86-21.24c-23.11-14.16-41.02-34.38-53.71-60.67-12.7-26.28-19.13-56.52-19.29-90.7v-17.58c0-34.99,6.31-65.8,18.92-92.41,12.61-26.61,30.43-47.04,53.47-61.28,23.03-14.24,49.35-21.36,78.98-21.36s55.95,7.12,78.98,21.36c23.03,14.24,40.85,34.67,53.47,61.28,12.61,26.61,18.92,57.34,18.92,92.16v15.87Zm-74.22-16.11c0-37.27-6.68-65.59-20.02-84.96-13.35-19.37-32.39-29.05-57.13-29.05s-43.54,9.56-56.88,28.69c-13.35,19.13-20.1,47.16-20.26,84.11v17.33c0,36.3,6.67,64.45,20.02,84.47,13.34,20.02,32.55,30.03,57.62,30.03s43.46-9.64,56.64-28.93,19.86-47.4,20.02-84.35v-17.33Z"/><path class="cls-1" d="M1046.88,72.27l91.31,257.81,90.82-257.81h96.19V427.73h-73.49v-97.17l7.32-167.72-95.95,264.89h-50.29l-95.7-264.65,7.32,167.48v97.17h-73.24V72.27h95.7Z"/><path class="cls-1" d="M1573.49,334.47c0-13.83-4.88-24.45-14.65-31.86-9.77-7.4-27.34-15.22-52.73-23.44-25.39-8.22-45.49-16.31-60.3-24.29-40.37-21.81-60.55-51.19-60.55-88.13,0-19.2,5.41-36.34,16.24-51.39,10.82-15.05,26.37-26.81,46.63-35.28,20.26-8.46,43.01-12.7,68.24-12.7s48.01,4.6,67.87,13.79c19.86,9.2,35.28,22.18,46.26,38.94,10.99,16.77,16.48,35.81,16.48,57.13h-73.24c0-16.27-5.13-28.93-15.38-37.96s-24.66-13.55-43.21-13.55-31.82,3.78-41.75,11.35c-9.93,7.57-14.89,17.54-14.89,29.91,0,11.56,5.82,21.24,17.46,29.05,11.63,7.81,28.77,15.14,51.39,21.97,41.66,12.54,72.02,28.08,91.06,46.63s28.56,41.67,28.56,69.34c0,30.76-11.64,54.89-34.91,72.39-23.28,17.5-54.61,26.25-93.99,26.25-27.34,0-52.25-5.01-74.71-15.02s-39.59-23.72-51.39-41.14c-11.8-17.41-17.7-37.6-17.7-60.55h73.49c0,39.23,23.44,58.84,70.31,58.84,17.41,0,31.01-3.54,40.77-10.62s14.65-16.97,14.65-29.66Z"/><path class="cls-1" d="M1964.11,131.59h-108.89V427.73h-73.24V131.59h-107.42v-59.33h289.55v59.33Z"/><path class="cls-1" d="M2219.73,273.68h-140.62v95.21h165.04v58.84h-238.28V72.27h237.79v59.33h-164.55v84.72h140.62v57.37Z"/><path class="cls-1" d="M2418.7,297.61h-58.35v130.13h-73.24V72.27h132.08c41.99,0,74.38,9.36,97.17,28.08,22.79,18.72,34.18,45.17,34.18,79.35,0,24.25-5.25,44.47-15.75,60.67-10.5,16.2-26.41,29.1-47.73,38.7l76.9,145.26v3.42h-78.61l-66.65-130.13Zm-58.35-59.33h59.08c18.39,0,32.63-4.68,42.72-14.04,10.09-9.36,15.14-22.25,15.14-38.7s-4.76-29.95-14.28-39.55c-9.52-9.6-24.13-14.4-43.82-14.4h-58.84v106.69Z"/><path class="cls-1" d="M2730.71,427.73V72.27h124.51c43.13,0,75.84,8.26,98.14,24.78,22.3,16.52,33.45,40.73,33.45,72.63,0,17.42-4.48,32.76-13.43,46.02-8.95,13.27-21.4,22.99-37.35,29.18,18.23,4.56,32.59,13.76,43.09,27.59,10.5,13.84,15.75,30.76,15.75,50.78,0,34.18-10.91,60.06-32.71,77.64-21.81,17.58-52.9,26.53-93.26,26.86h-138.18Zm73.24-206.54h54.2c36.95-.65,55.42-15.38,55.42-44.19,0-16.11-4.68-27.71-14.04-34.79-9.36-7.08-24.13-10.62-44.31-10.62h-51.27v89.6Zm0,51.76v95.95h62.74c17.25,0,30.72-4.11,40.41-12.33,9.68-8.22,14.53-19.57,14.53-34.06,0-32.55-16.85-49.07-50.54-49.56h-67.14Z"/><path class="cls-1" d="M3193.12,72.27h73.24v246.09c0,22.62-5,42.6-15.01,59.94s-24.13,30.72-42.36,40.16c-18.23,9.44-38.82,14.16-61.77,14.16-37.6,0-66.89-9.56-87.89-28.69-21-19.12-31.49-46.18-31.49-81.18h73.73c0,17.42,3.66,30.27,10.99,38.57s18.88,12.45,34.67,12.45c14,0,25.15-4.8,33.45-14.4,8.3-9.6,12.45-23.27,12.45-41.02V72.27Z"/><path class="cls-1" d="M3529.79,354.49h-128.42l-24.41,73.24h-77.88l132.32-355.47h67.87l133.06,355.47h-77.88l-24.66-73.24Zm-108.64-59.33h88.87l-44.68-133.06-44.19,133.06Z"/><path class="cls-1" d="M3797.12,297.61h-58.35v130.13h-73.24V72.27h132.08c41.99,0,74.38,9.36,97.17,28.08,22.79,18.72,34.18,45.17,34.18,79.35,0,24.25-5.25,44.47-15.75,60.67-10.5,16.2-26.41,29.1-47.73,38.7l76.9,145.26v3.42h-78.61l-66.65-130.13Zm-58.35-59.33h59.08c18.39,0,32.63-4.68,42.72-14.04,10.09-9.36,15.14-22.25,15.14-38.7s-4.76-29.95-14.28-39.55c-9.52-9.6-24.13-14.4-43.82-14.4h-58.84v106.69Z"/><path class="cls-1" d="M4273.68,427.73h-73.24l-142.58-233.89v233.89h-73.24V72.27h73.24l142.82,234.38V72.27h73V427.73Z"/><path class="cls-1" d="M4551.51,273.68h-140.62v95.21h165.04v58.84h-238.28V72.27h237.79v59.33h-164.55v84.72h140.62v57.37Z"/></g></g></svg>